<svg width="29" height="31" viewBox="0 0 29 31" fill="none" xmlns="http://www.w3.org/2000/svg">
<g clip-path="url(#clip0_2_7)">
<rect width="28" height="30" transform="translate(0.267639 0.986694)" fill="#E80366"/>
<path d="M8.57164 4.08869C8.19564 4.03069 8.17964 4.02469 8.35764 3.99869C8.69764 3.94669 9.49764 4.01669 10.0496 4.14669C11.3376 4.45069 12.5096 5.23069 13.7616 6.61669L14.0936 6.98469L14.5696 6.90869C16.5736 6.58869 18.6096 6.84269 20.3156 7.62469C20.7856 7.84069 21.5256 8.26869 21.6156 8.37869C21.6476 8.41469 21.7016 8.63869 21.7356 8.88069C21.8636 9.71669 21.8016 10.3547 21.5436 10.8327C21.4036 11.0927 21.3956 11.1747 21.4896 11.3987C21.5346 11.491 21.6045 11.5687 21.6915 11.6232C21.7785 11.6776 21.879 11.7066 21.9816 11.7067C22.4056 11.7067 22.8616 11.0267 23.0716 10.0787L23.1556 9.70069L23.3216 9.88869C24.2356 10.9167 24.9516 12.3167 25.0736 13.3127L25.1056 13.5727L24.9536 13.3367C24.7327 12.9752 24.4358 12.6661 24.0836 12.4307C23.4716 12.0287 22.8236 11.8907 21.1116 11.8007C19.5636 11.7207 18.6876 11.5887 17.8196 11.3067C16.3416 10.8267 15.5976 10.1907 13.8416 7.90269C13.0616 6.88469 12.5816 6.32269 12.1016 5.87069C11.0116 4.84069 9.94164 4.30069 8.57164 4.09069V4.08869Z" fill="white"/>
<path d="M21.9676 6.35869C22.0056 5.67869 22.0976 5.22869 22.2856 4.81869C22.3268 4.71508 22.3784 4.6159 22.4396 4.52269C22.4496 4.52269 22.4176 4.64269 22.3676 4.78869C22.2316 5.18869 22.2076 5.73269 22.3036 6.36669C22.4236 7.17069 22.4896 7.28669 23.3436 8.15469C23.7456 8.56269 24.2116 9.07469 24.3816 9.29669L24.6896 9.69669L24.3816 9.41069C24.0056 9.06069 23.1416 8.37669 22.9496 8.27869C22.8216 8.21469 22.8016 8.21469 22.7236 8.29269C22.6496 8.36469 22.6356 8.47269 22.6236 8.98469C22.6096 9.78269 22.4996 10.2947 22.2356 10.8047C22.0936 11.0847 22.0716 11.0247 22.1996 10.7107C22.2956 10.4787 22.3056 10.3747 22.3056 9.60269C22.3056 8.05269 22.1176 7.67869 21.0316 7.04269C20.7041 6.85349 20.3677 6.67996 20.0236 6.52269C19.8541 6.45455 19.6897 6.37434 19.5316 6.28269C19.5616 6.25269 20.6216 6.56069 21.0476 6.72269C21.6836 6.96669 21.7876 6.99669 21.8656 6.96869C21.9156 6.94869 21.9416 6.79869 21.9656 6.35869H21.9676ZM9.30164 9.01269C8.53964 7.96869 8.06564 6.36669 8.16964 5.16869L8.19964 4.79869L8.37364 4.82869C8.70164 4.88869 9.26364 5.09669 9.52764 5.25669C10.2496 5.69269 10.5636 6.26669 10.8816 7.74269C10.9756 8.17469 11.0976 8.66269 11.1536 8.83069C11.2436 9.09669 11.5876 9.71869 11.8656 10.1227C12.0656 10.4147 11.9336 10.5527 11.4896 10.5127C10.8116 10.4527 9.89364 9.82269 9.30164 9.01269ZM21.0396 16.7867C17.4716 15.3607 16.2156 14.1207 16.2156 12.0307C16.2156 11.7227 16.2256 11.4707 16.2396 11.4707C16.2516 11.4707 16.3896 11.5707 16.5456 11.6967C17.2696 12.2727 18.0796 12.5187 20.3236 12.8447C21.6436 13.0367 22.3836 13.1907 23.0696 13.4167C25.2496 14.1347 26.5956 15.5907 26.9176 17.5767C27.0096 18.1527 26.9576 19.2327 26.8036 19.8027C26.6836 20.2527 26.3196 21.0627 26.2236 21.0947C26.1956 21.1047 26.1696 21.0027 26.1636 20.8627C26.1276 20.1187 25.7476 19.3927 25.1116 18.8487C24.3876 18.2307 23.4156 17.7367 21.0396 16.7867ZM18.5356 17.3807C18.4937 17.1274 18.4363 16.8769 18.3636 16.6307L18.2716 16.3607L18.4416 16.5507C18.6756 16.8107 18.8616 17.1447 19.0176 17.5907C19.1376 17.9307 19.1496 18.0307 19.1496 18.5827C19.1496 19.1247 19.1336 19.2387 19.0216 19.5427C18.8679 19.9935 18.6103 20.4018 18.2696 20.7347C17.6176 21.3947 16.7796 21.7587 15.5696 21.9107C15.3596 21.9367 14.7476 21.9807 14.2096 22.0087C12.8516 22.0787 11.9576 22.2247 11.1556 22.5047C11.0829 22.5366 11.005 22.5549 10.9256 22.5587C10.8936 22.5267 11.4416 22.2027 11.8916 21.9867C12.5276 21.6807 13.1616 21.5147 14.5816 21.2807C15.2816 21.1647 16.0076 21.0227 16.1916 20.9667C17.9276 20.4387 18.8216 19.0727 18.5356 17.3807Z" fill="white"/>
<path d="M20.1716 20.2687C19.6976 19.2567 19.5876 18.2787 19.8476 17.3667C19.8756 17.2667 19.9196 17.1887 19.9476 17.1887C19.9736 17.1887 20.0876 17.2487 20.1956 17.3227C20.4156 17.4687 20.8516 17.7147 22.0196 18.3467C23.4756 19.1367 24.3076 19.7467 24.8716 20.4467C25.3656 21.0567 25.6716 21.7547 25.8196 22.6027C25.9036 23.0827 25.8536 24.2427 25.7296 24.7267C25.3376 26.2547 24.4296 27.4547 23.1296 28.1547C22.9396 28.2567 22.7696 28.3407 22.7496 28.3407C22.7316 28.3407 22.8016 28.1667 22.9036 27.9527C23.3416 27.0447 23.3916 26.1627 23.0616 25.1807C22.8576 24.5787 22.4456 23.8447 21.6136 22.6027C20.6456 21.1627 20.4096 20.7767 20.1716 20.2687ZM6.76764 25.7347C8.09364 24.6227 9.73964 23.8347 11.2416 23.5907C12.0153 23.4915 12.8 23.5219 13.5636 23.6807C14.5236 23.9247 15.3836 24.4727 15.8296 25.1227C16.2656 25.7607 16.4536 26.3147 16.6496 27.5507C16.7256 28.0367 16.8096 28.5267 16.8336 28.6367C16.9796 29.2767 17.2656 29.7887 17.6176 30.0447C18.1776 30.4527 19.1456 30.4787 20.0956 30.1107C20.1943 30.0652 20.2985 30.0329 20.4056 30.0147C20.4396 30.0487 19.9616 30.3667 19.6256 30.5347C19.227 30.7467 18.7811 30.854 18.3296 30.8467C17.4596 30.8467 16.7376 30.4067 16.1336 29.5107C15.9121 29.1313 15.7144 28.7386 15.5416 28.3347C14.9056 26.8927 14.5916 26.4547 13.8536 25.9727C13.2096 25.5527 12.3796 25.4787 11.7556 25.7827C10.9356 26.1827 10.7076 27.2227 11.2956 27.8827C11.5703 28.1663 11.9297 28.353 12.3196 28.4147C12.4745 28.4359 12.6322 28.4236 12.7818 28.3785C12.9315 28.3335 13.0698 28.2567 13.1872 28.1535C13.3046 28.0503 13.3985 27.9231 13.4624 27.7804C13.5263 27.6378 13.5588 27.483 13.5576 27.3267C13.5576 26.8927 13.3896 26.6467 12.9676 26.4547C12.3896 26.1967 11.7716 26.4987 11.7736 27.0367C11.7736 27.2667 11.8756 27.4107 12.1076 27.5167C12.2556 27.5827 12.2596 27.5867 12.1376 27.5627C11.6096 27.4527 11.4856 26.8187 11.9096 26.3987C12.4216 25.8947 13.4776 26.1167 13.8396 26.8067C13.9916 27.0967 14.0096 27.6727 13.8776 28.0207C13.5776 28.8007 12.7136 29.2107 11.8336 28.9867C11.2336 28.8347 10.9916 28.6707 10.2696 27.9327C9.01564 26.6487 8.52964 26.3987 6.72164 26.1187L6.37364 26.0647L6.76764 25.7347Z" fill="white"/>
<path fill-rule="evenodd" clip-rule="evenodd" d="M0.883649 2.75469C5.07165 7.80669 7.95765 9.89069 8.27765 10.3307C8.54165 10.6947 8.44165 11.0227 7.98965 11.2787C7.66822 11.4402 7.31833 11.5373 6.95965 11.5647C6.66565 11.5647 6.56365 11.4527 6.56365 11.4527C6.39365 11.2927 6.29765 11.3207 5.42365 9.77869C4.68058 8.62221 3.92856 7.47151 3.16765 6.32669C3.10365 6.26669 3.10565 6.26669 5.30165 10.1727C5.65565 10.9867 5.37165 11.2847 5.37165 11.4007C5.37165 11.6367 5.30565 11.7607 5.01365 12.0867C4.52565 12.6267 4.30765 13.2347 4.14965 14.4927C3.97365 15.9027 3.47765 16.8987 2.10165 18.6047C1.29765 19.6027 1.16565 19.7847 0.961649 20.1887C0.705649 20.6947 0.635649 20.9787 0.607649 21.6167C0.577649 22.2947 0.635649 22.7307 0.843649 23.3767C1.02365 23.9447 1.21565 24.3167 1.70165 25.0647C2.12165 25.7107 2.36165 26.1907 2.36165 26.3787C2.36165 26.5267 2.38965 26.5267 3.04165 26.3807C4.59365 26.0327 5.85565 25.4207 6.56565 24.6667C7.00565 24.2007 7.10765 23.9447 7.11165 23.3067C7.11365 22.8907 7.09965 22.8027 6.98565 22.5627C6.80165 22.1727 6.46565 21.8467 5.72565 21.3427C4.75365 20.6827 4.33765 20.1527 4.22565 19.4227C4.12965 18.8227 4.23965 18.4007 4.77565 17.2827C5.33165 16.1227 5.46965 15.6287 5.56365 14.4627C5.62365 13.7087 5.70565 13.4107 5.92365 13.1707C6.15165 12.9227 6.35565 12.8387 6.91965 12.7627C7.83765 12.6367 8.41965 12.4027 8.89965 11.9627C9.09205 11.8039 9.24728 11.6048 9.35441 11.3795C9.46153 11.1542 9.51793 10.9082 9.51965 10.6587L9.53965 10.2387L9.30565 9.97069C8.46365 8.99469 0.319649 1.98669 0.267649 1.98669C0.257649 1.98669 0.533649 2.33269 0.883649 2.75469ZM2.83565 22.3847C2.9274 22.2226 2.95469 22.032 2.91205 21.8507C2.86942 21.6694 2.76001 21.5109 2.60565 21.4067C2.30565 21.2067 1.83565 21.3027 1.83565 21.5607C1.83565 21.6407 1.87965 21.6987 1.97965 21.7487C2.14765 21.8347 2.15965 21.9307 2.02765 22.1287C1.89365 22.3267 1.90565 22.5007 2.05765 22.6207C2.30365 22.8107 2.65165 22.7067 2.83565 22.3847ZM10.1176 12.9847C9.68765 13.1147 9.26965 13.5687 9.13765 14.0447C9.05965 14.3347 9.10565 14.8447 9.22365 15.0007C9.41565 15.2547 9.59965 15.3207 10.1016 15.3187C11.0816 15.3127 11.9336 14.8947 12.0336 14.3707C12.1136 13.9427 11.7396 13.3507 11.2236 13.0887C10.8731 12.9464 10.4885 12.9102 10.1176 12.9847ZM11.2656 13.8747C11.4156 13.6607 11.3496 13.4307 11.0916 13.2747C10.6036 12.9767 9.86165 13.2227 9.86165 13.6827C9.86165 13.9127 10.2476 14.1627 10.6016 14.1627C10.8376 14.1627 11.1616 14.0227 11.2656 13.8747Z" fill="white"/>
</g>
<defs>
<clipPath id="clip0_2_7">
<rect width="28" height="30" fill="white" transform="translate(0.267639 0.986694)"/>
</clipPath>
</defs>
</svg>
